<svg width="32" height="32" viewBox="0 0 32 32" fill="none" xmlns="http://www.w3.org/2000/svg">
<rect width="32" height="32" rx="9" fill="#292E42"/>
<path fill-rule="evenodd" clip-rule="evenodd" d="M10.2842 12.8358C10.2842 13.3822 10.7152 13.8252 11.247 13.8252H12.0172C12.5489 13.8252 12.9799 13.3822 12.9799 12.8358V11.9948C12.9799 11.4484 12.5489 11.0054 12.0172 11.0054H11.247C10.7152 11.0054 10.2842 11.4484 10.2842 11.9948V12.8358Z" fill="#596184"/>
<path fill-rule="evenodd" clip-rule="evenodd" d="M19.0201 12.8358C19.0201 13.3822 19.4511 13.8252 19.9828 13.8252H20.753C21.2847 13.8252 21.7158 13.3822 21.7158 12.8358V11.9948C21.7158 11.4484 21.2847 11.0054 20.753 11.0054H19.9828C19.4511 11.0054 19.0201 11.4484 19.0201 11.9948V12.8358Z" fill="#596184"/>
<path fill-rule="evenodd" clip-rule="evenodd" d="M22.486 9C23.0177 9 23.4487 9.44297 23.4487 9.9894V10.7809C23.4487 11.3273 23.8798 11.7703 24.4115 11.7703H25.0373C25.569 11.7703 26 12.2133 26 12.7597V16.371C26 16.9175 25.569 17.3604 25.0373 17.3604H18.3943C17.8626 17.3604 17.4315 17.8034 17.4315 18.3498V19.2403C17.4315 19.7867 17.8626 20.2297 18.3943 20.2297H25.0373C25.569 20.2297 26 20.6727 26 21.2191V22.0106C26 22.557 25.569 23 25.0373 23H18.2017C17.67 23 17.239 22.557 17.239 22.0106V21.2191C17.239 20.6727 16.808 20.2297 16.2762 20.2297H15.6986C15.1669 20.2297 14.7359 19.7867 14.7359 19.2403V9.9894C14.7359 9.44297 15.1669 9 15.6986 9H22.486ZM23.3043 13.6007C23.3043 14.1471 22.8733 14.5901 22.3416 14.5901H18.3943C17.8626 14.5901 17.4315 14.1471 17.4315 13.6007V12.7597C17.4315 12.2133 17.8626 11.7703 18.3943 11.7703H22.3416C22.8733 11.7703 23.3043 12.2133 23.3043 12.7597V13.6007Z" fill="#596184"/>
<path fill-rule="evenodd" clip-rule="evenodd" d="M9.51403 9C8.98232 9 8.55129 9.44297 8.55129 9.9894V10.7809C8.55129 11.3273 8.12024 11.7703 7.58853 11.7703H6.96274C6.43103 11.7703 6 12.2133 6 12.7597V16.371C6 16.9175 6.43103 17.3604 6.96274 17.3604H13.6057C14.1374 17.3604 14.5685 17.8034 14.5685 18.3498V19.2403C14.5685 19.7867 14.1374 20.2297 13.6057 20.2297H6.96274C6.43103 20.2297 6 20.6727 6 21.2191V22.0106C6 22.557 6.43103 23 6.96274 23H13.7983C14.33 23 14.761 22.557 14.761 22.0106V21.2191C14.761 20.6727 15.192 20.2297 15.7238 20.2297H16.3014C16.8331 20.2297 17.2641 19.7867 17.2641 19.2403V9.9894C17.2641 9.44297 16.8331 9 16.3014 9H9.51403ZM8.6957 13.6007C8.6957 14.1471 9.12674 14.5901 9.65845 14.5901H13.6057C14.1374 14.5901 14.5685 14.1471 14.5685 13.6007V12.7597C14.5685 12.2133 14.1374 11.7703 13.6057 11.7703H9.65845C9.12674 11.7703 8.6957 12.2133 8.6957 12.7597V13.6007Z" fill="#596184"/>
</svg>
