<svg width="100" height="100" viewBox="0 0 100 100" fill="none" xmlns="http://www.w3.org/2000/svg">
<rect width="100" height="100" rx="9" fill="#292E42" fill-opacity="0.4"/>
<path d="M49.2115 55.6145C49.6084 55.3901 50.2519 55.3901 50.6489 55.6145L69.7042 66.3856C70.8949 67.0587 70.8949 68.15 69.7042 68.8231L50.6489 79.5942C50.2519 79.8186 49.6084 79.8186 49.2115 79.5942L30.1562 68.8231C28.9654 68.15 28.9654 67.0587 30.1562 66.3856L49.2115 55.6145Z" fill="url(#paint0_linear_8270_18982)"/>
<path d="M49.2115 48.4973C49.6084 48.2729 50.2519 48.2729 50.6489 48.4973L69.7042 59.2684C70.8949 59.9415 70.8949 61.0328 69.7042 61.7059L50.6489 72.477C50.2519 72.7014 49.6084 72.7014 49.2115 72.477L30.1562 61.7059C28.9654 61.0328 28.9654 59.9415 30.1562 59.2684L49.2115 48.4973Z" fill="url(#paint1_linear_8270_18982)"/>
<path d="M49.2115 41.3686C49.6084 41.1443 50.2519 41.1443 50.6489 41.3686L69.7042 52.1398C70.8949 52.8129 70.8949 53.9041 69.7042 54.5772L50.6489 65.3484C50.2519 65.5727 49.6084 65.5727 49.2115 65.3484L30.1562 54.5772C28.9654 53.9041 28.9654 52.8129 30.1562 52.1398L49.2115 41.3686Z" fill="url(#paint2_linear_8270_18982)"/>
<path d="M49.3511 34.6521C49.7481 34.4277 50.3916 34.4277 50.7885 34.6521L69.8438 45.4232C71.0346 46.0963 71.0346 47.1876 69.8438 47.8607L50.7885 58.6318C50.3916 58.8562 49.7481 58.8562 49.3511 58.6318L30.2958 47.8607C29.1051 47.1876 29.1051 46.0963 30.2958 45.4232L49.3511 34.6521Z" fill="url(#paint3_linear_8270_18982)"/>
<path d="M49.3511 27.5349C49.7481 27.3105 50.3916 27.3105 50.7885 27.5349L69.8438 38.306C71.0346 38.9791 71.0346 40.0704 69.8438 40.7435L50.7885 51.5146C50.3916 51.739 49.7481 51.739 49.3511 51.5146L30.2958 40.7435C29.1051 40.0704 29.1051 38.9791 30.2958 38.306L49.3511 27.5349Z" fill="url(#paint4_linear_8270_18982)"/>
<path d="M49.3511 20.4062C49.7481 20.1819 50.3916 20.1819 50.7885 20.4062L69.8438 31.1774C71.0346 31.8505 71.0346 32.9417 69.8438 33.6148L50.7885 44.386C50.3916 44.6103 49.7481 44.6103 49.3511 44.386L30.2958 33.6148C29.1051 32.9417 29.1051 31.8505 30.2958 31.1774L49.3511 20.4062Z" fill="url(#paint5_linear_8270_18982)"/>
<defs>
<linearGradient id="paint0_linear_8270_18982" x1="49.9302" y1="81.038" x2="51.5926" y2="63.1377" gradientUnits="userSpaceOnUse">
<stop stop-color="#525BFF"/>
<stop offset="1" stop-color="#3480FF"/>
</linearGradient>
<linearGradient id="paint1_linear_8270_18982" x1="51.3898" y1="75.6231" x2="57.6042" y2="58.8479" gradientUnits="userSpaceOnUse">
<stop stop-color="#BBE2FF"/>
<stop offset="1" stop-color="#EAF6FF"/>
</linearGradient>
<linearGradient id="paint2_linear_8270_18982" x1="51.457" y1="44.936" x2="49.9932" y2="65.759" gradientUnits="userSpaceOnUse">
<stop stop-color="#02BEFF"/>
<stop offset="1" stop-color="#3481FF"/>
</linearGradient>
<linearGradient id="paint3_linear_8270_18982" x1="50.0698" y1="60.0756" x2="51.7323" y2="42.1753" gradientUnits="userSpaceOnUse">
<stop stop-color="#525BFF"/>
<stop offset="1" stop-color="#3480FF"/>
</linearGradient>
<linearGradient id="paint4_linear_8270_18982" x1="51.5295" y1="54.6607" x2="57.7439" y2="37.8855" gradientUnits="userSpaceOnUse">
<stop stop-color="#BBE2FF"/>
<stop offset="1" stop-color="#EAF6FF"/>
</linearGradient>
<linearGradient id="paint5_linear_8270_18982" x1="51.5966" y1="23.9736" x2="50.1328" y2="44.7966" gradientUnits="userSpaceOnUse">
<stop stop-color="#02BEFF"/>
<stop offset="1" stop-color="#3481FF"/>
</linearGradient>
</defs>
</svg>
