<svg width="240" height="240" viewBox="0 0 240 240" fill="none" xmlns="http://www.w3.org/2000/svg">
<rect x="2.25" y="2.25" width="235.5" height="235.5" rx="9.16656" stroke="#292E42" stroke-width="4.5"/>
<path d="M62.7466 95.2561H151.973V158.076H62.7466V95.2561ZM62.7466 82.6921V57.564H151.973V82.6921H62.7466ZM56.3733 170.64H158.346C160.036 170.64 161.657 169.979 162.853 168.8C164.048 167.622 164.719 166.024 164.719 164.358V51.282C164.719 49.6159 164.048 48.018 162.853 46.8399C161.657 45.6618 160.036 45 158.346 45H56.3733C54.683 45 53.0619 45.6618 51.8667 46.8399C50.6715 48.018 50 49.6159 50 51.282V164.358C50 166.024 50.6715 167.622 51.8667 168.8C53.0619 169.979 54.683 170.64 56.3733 170.64ZM126.479 76.4101H139.226V63.846H126.479V76.4101Z" fill="#292E42"/>
<path fill-rule="evenodd" clip-rule="evenodd" d="M62.7466 82.6921V57.564H151.973V82.6921H62.7466ZM139.226 76.4101H126.479V63.846H139.226V76.4101Z" fill="#596184"/>
<path d="M62.7466 95.2561H151.973V158.076H62.7466V95.2561Z" fill="#596184"/>
<path d="M83.5024 125.543C83.5024 119.307 86.0158 113.326 90.4895 108.916C94.9633 104.507 101.031 102.029 107.358 102.029C113.685 102.029 119.752 104.507 124.226 108.916C128.7 113.326 131.213 119.307 131.213 125.543C131.213 131.779 128.7 137.76 124.226 142.17C119.752 146.58 113.685 149.057 107.358 149.057C101.031 149.057 94.9633 146.58 90.4895 142.17C86.0158 137.76 83.5024 131.779 83.5024 125.543ZM99.9031 124.073C100.694 124.073 101.452 123.764 102.012 123.213C102.571 122.661 102.885 121.914 102.885 121.134C102.885 120.355 102.571 119.607 102.012 119.056C101.452 118.505 100.694 118.195 99.9031 118.195C99.1122 118.195 98.3537 118.505 97.7945 119.056C97.2353 119.607 96.9211 120.355 96.9211 121.134C96.9211 121.914 97.2353 122.661 97.7945 123.213C98.3537 123.764 99.1122 124.073 99.9031 124.073ZM117.795 121.134C117.795 120.355 117.48 119.607 116.921 119.056C116.362 118.505 115.604 118.195 114.813 118.195C114.022 118.195 113.263 118.505 112.704 119.056C112.145 119.607 111.831 120.355 111.831 121.134C111.831 121.914 112.145 122.661 112.704 123.213C113.263 123.764 114.022 124.073 114.813 124.073C115.604 124.073 116.362 123.764 116.921 123.213C117.48 122.661 117.795 121.914 117.795 121.134ZM117.98 135.507C119.101 134.478 118.179 133.403 118.144 133.361C117.935 133.129 117.714 132.909 117.482 132.7C116.864 132.154 116.192 131.671 115.475 131.26C113.686 130.219 111.008 129.217 107.364 129.217C103.72 129.217 101.039 130.216 99.247 131.257C98.3524 131.771 97.6905 132.295 97.2372 132.697C97.0035 132.906 96.7816 133.126 96.5722 133.359L96.5305 133.411L96.5156 133.429L96.5096 133.435L96.5037 133.441C96.2666 133.745 96.1594 134.128 96.205 134.509C96.2506 134.889 96.4453 135.238 96.7476 135.479C97.0499 135.72 97.4358 135.835 97.8231 135.8C98.2104 135.765 98.5684 135.581 98.8206 135.29L98.8296 135.281C98.9597 135.14 99.0971 135.005 99.2411 134.878C99.5601 134.59 100.061 134.193 100.756 133.791C102.137 132.991 104.304 132.156 107.364 132.156C110.423 132.156 112.588 132.991 113.963 133.791C114.658 134.193 115.156 134.59 115.475 134.875C115.618 135.002 115.754 135.137 115.883 135.278L115.892 135.287C116.14 135.587 116.499 135.779 116.89 135.82C117.281 135.862 117.672 135.749 117.98 135.507Z" fill="#292E42"/>
<path d="M176.141 176.83L190 190.487L185.422 195L171.566 181.34C166.41 185.413 159.998 187.629 153.39 187.62C137.314 187.62 124.268 174.76 124.268 158.914C124.268 143.069 137.314 130.209 153.39 130.209C169.466 130.209 182.513 143.069 182.513 158.914C182.522 165.427 180.274 171.748 176.141 176.83ZM169.65 174.463C173.757 170.301 176.05 164.721 176.041 158.914C176.041 146.577 165.903 136.588 153.39 136.588C140.874 136.588 130.739 146.577 130.739 158.914C130.739 171.248 140.874 181.241 153.39 181.241C159.281 181.25 164.942 178.989 169.165 174.942L169.65 174.463Z" fill="#292E42"/>
<path d="M169.65 174.463C173.757 170.301 176.05 164.721 176.041 158.914C176.041 146.577 165.903 136.588 153.39 136.588C140.874 136.588 130.739 146.577 130.739 158.914C130.739 171.248 140.874 181.241 153.39 181.241C159.281 181.25 164.942 178.989 169.165 174.942L169.65 174.463Z" fill="#596184"/>
<path d="M165.558 154.48C165.289 155.263 164.958 156.023 164.569 156.755C164.12 157.481 163.565 158.138 162.921 158.704L161.273 160.329C160.698 160.964 160.032 161.511 159.295 161.954C158.635 162.603 158.306 163.253 157.646 163.903C157.122 164.685 156.784 165.574 156.657 166.503C156.385 167.564 156.274 168.659 156.328 169.752C156.382 170.845 150.448 171.06 150.394 169.752C150.34 168.444 150.451 167.134 150.724 165.853C150.785 164.85 151.008 163.863 151.383 162.928C151.695 162.105 152.141 161.337 152.702 160.654L154.68 158.704C155.144 158.175 155.702 157.735 156.328 157.405C156.987 157.08 157.317 156.43 157.646 156.105L158.635 154.155C158.906 153.428 159.018 152.653 158.965 151.881C158.904 150.878 158.681 149.891 158.306 148.957C157.545 147.665 156.392 146.642 155.009 146.032C154.503 145.77 153.931 145.657 153.361 145.707C152.408 145.633 151.451 145.804 150.585 146.203C149.718 146.601 148.971 147.214 148.416 147.982C147.287 149.605 146.71 151.539 146.768 153.506C146.826 155.472 140.827 155.389 140.834 153.506C140.842 151.622 141.176 149.754 141.823 147.982C142.379 146.401 143.28 144.959 144.461 143.758C145.588 142.637 146.933 141.753 148.416 141.158C150.214 140.521 152.11 140.191 154.02 140.184C155.58 140.217 157.129 140.435 158.635 140.833C160.021 141.274 161.269 142.057 162.261 143.108C163.322 144.159 164.211 145.364 164.899 146.682C165.543 148.229 165.879 149.884 165.888 151.556C165.924 152.541 165.813 153.527 165.558 154.48Z" fill="#292E42"/>
<path d="M156.713 175.636C156.713 177.459 155.213 178.937 153.364 178.937C151.514 178.937 150.015 177.459 150.015 175.636C150.015 173.813 151.514 172.335 153.364 172.335C155.213 172.335 156.713 173.813 156.713 175.636Z" fill="#292E42"/>
</svg>
