<svg width="30" height="31" viewBox="0 0 30 31" fill="none" xmlns="http://www.w3.org/2000/svg">
<path fill-rule="evenodd" clip-rule="evenodd" d="M6.8 0.293945C3.04446 0.293945 0 3.33841 0 7.09394V23.4939C0 27.2495 3.04447 30.2939 6.8 30.2939H23.2C26.9555 30.2939 30 27.2495 30 23.4939V7.09394C30 3.33841 26.9555 0.293945 23.2 0.293945H6.8ZM21.0372 7.23272C21.0372 6.71422 20.6207 6.29392 20.107 6.29392H17.2698C16.756 6.29392 16.3395 6.71422 16.3395 7.23272V7.9368C16.3395 8.45525 15.923 8.87554 15.4093 8.87554H14.8047C14.2909 8.87554 13.8744 9.29584 13.8744 9.81434V10.6123C13.8744 11.1308 13.4579 11.5511 12.9442 11.5511H10.107C9.59321 11.5511 9.17677 11.9714 9.17677 12.4898V13.2409C9.17677 13.7593 9.59321 14.1796 10.107 14.1796H12.9442C13.4579 14.1796 13.8744 14.5999 13.8744 15.1184V21.0796C13.8744 21.598 13.4579 22.0183 12.9442 22.0183H10.107C9.59321 22.0183 9.17677 22.4386 9.17677 22.9571V23.7081C9.17677 24.2266 9.59321 24.6469 10.107 24.6469H12.9442C13.4579 24.6469 13.8744 24.2266 13.8744 23.7081V23.1448C13.8744 22.6264 14.2909 22.2061 14.8047 22.2061H15.5488C16.0626 22.2061 16.4791 21.7858 16.4791 21.2673V15.1184C16.4791 14.5999 16.8956 14.1796 17.4093 14.1796H20.2465C20.7603 14.1796 21.1768 13.7593 21.1768 13.2409V12.4898C21.1768 11.9714 20.7603 11.5511 20.2465 11.5511H17.4093C16.8956 11.5511 16.4791 11.1308 16.4791 10.6123V9.86126C16.4791 9.34282 16.8956 8.92252 17.4093 8.92252H20.107C20.6207 8.92252 21.0372 8.50222 21.0372 7.98372V7.23272Z" fill="white"/>
</svg>
